<?xml version="1.0" standalone="no"?>
<!DOCTYPE svg PUBLIC "-//W3C//DTD SVG 1.1//EN" "http://www.w3.org/Graphics/SVG/1.1/DTD/svg11.dtd" >
<svg xmlns="http://www.w3.org/2000/svg">
<metadata>
Created by FontForge 20120731 at Sun Jul 24 22:24:58 2016
 By admin
</metadata>
<defs>
<font id="iconfont" horiz-adv-x="1024" >
  <font-face 
    font-family="iconfont"
    font-weight="500"
    font-stretch="normal"
    units-per-em="1024"
    panose-1="2 0 6 3 0 0 0 0 0 0"
    ascent="896"
    descent="-128"
    x-height="792"
    bbox="-656 -221 1266 896.125"
    underline-thickness="50"
    underline-position="-100"
    unicode-range="U+0078-E636"
  />
<missing-glyph horiz-adv-x="374" 
d="M34 0v682h272v-682h-272zM68 34h204v614h-204v-614z" />
    <glyph glyph-name=".notdef" horiz-adv-x="374" 
d="M34 0v682h272v-682h-272zM68 34h204v614h-204v-614z" />
    <glyph glyph-name=".null" horiz-adv-x="0" 
 />
    <glyph glyph-name="nonmarkingreturn" horiz-adv-x="341" 
 />
    <glyph glyph-name="x" unicode="x" horiz-adv-x="1001" 
d="M281 543q-27 -1 -53 -1h-83q-18 0 -36.5 -6t-32.5 -18.5t-23 -32t-9 -45.5v-76h912v41q0 16 -0.5 30t-0.5 18q0 13 -5 29t-17 29.5t-31.5 22.5t-49.5 9h-133v-97h-438v97zM955 310v-52q0 -23 0.5 -52t0.5 -58t-10.5 -47.5t-26 -30t-33 -16t-31.5 -4.5q-14 -1 -29.5 -0.5
t-29.5 0.5h-32l-45 128h-439l-44 -128h-29h-34q-20 0 -45 1q-25 0 -41 9.5t-25.5 23t-13.5 29.5t-4 30v167h911zM163 247q-12 0 -21 -8.5t-9 -21.5t9 -21.5t21 -8.5q13 0 22 8.5t9 21.5t-9 21.5t-22 8.5zM316 123q-8 -26 -14 -48q-5 -19 -10.5 -37t-7.5 -25t-3 -15t1 -14.5
t9.5 -10.5t21.5 -4h37h67h81h80h64h36q23 0 34 12t2 38q-5 13 -9.5 30.5t-9.5 34.5q-5 19 -11 39h-368zM336 498v228q0 11 2.5 23t10 21.5t20.5 15.5t34 6h188q31 0 51.5 -14.5t20.5 -52.5v-227h-327z" />
    <glyph glyph-name="uniE600" unicode="&#xe600;" 
d="M268 469q0 99 71.5 168.5t172.5 69.5t172.5 -69.5t71.5 -168.5t-71.5 -169t-172.5 -70t-172.5 70t-71.5 169zM225 469q0 -84 46 -153t121 -103q-125 -35 -210 -134t-98 -229h43q16 143 126 240.5t259 97.5t259 -97.5t126 -240.5h43q-13 130 -98 229t-210 134
q75 34 121 103t46 153q0 116 -84 198.5t-203 82.5t-203 -82.5t-84 -198.5z" />
    <glyph glyph-name="uniE601" unicode="&#xe601;" 
d="M652 715h-501q-12 0 -20 -8t-8 -20v-779q0 -12 8 -20t20 -8h668q11 0 19 8t8 20v473h84v-501q0 -35 -24.5 -59t-59.5 -24h-723q-35 0 -59.5 24t-24.5 59v835q0 35 24.5 59t59.5 24h529v-83zM234 107l692 664h60v-60l-692 -664h-60v60z" />
    <glyph glyph-name="uniE602" unicode="&#xe602;" 
d="M513 412q-23 0 -39.5 -16t-16.5 -39t16.5 -39.5t39.5 -16.5t39.5 16.5t16.5 39.5t-16.5 39t-39.5 16zM290 412q-23 0 -39.5 -16t-16.5 -39t16.5 -39.5t39.5 -16.5t39.5 16.5t16.5 39.5t-16.5 39t-39.5 16zM513 747q-121 0 -224 -52.5t-162.5 -142t-59.5 -195.5
q0 -91 44.5 -170.5t122.5 -134.5v-197l196 119q42 -7 83 -7q121 0 223.5 52t162.5 142t60 196t-60 195.5t-162.5 142t-223.5 52.5zM513 22q-46 0 -94 11l-132 -79l2 129q-77 46 -121.5 118t-44.5 156q0 91 52 168t142 121.5t196 44.5t196 -44.5t142 -121.5t52 -168t-52 -168
t-142 -122t-196 -45zM736 412q-23 0 -39.5 -16t-16.5 -39t16.5 -39.5t39.5 -16.5t39.5 16.5t16.5 39.5t-16.5 39t-39.5 16z" />
    <glyph glyph-name="uniE603" unicode="&#xe603;" 
d="M570 399.5q21 20.5 21 50t-21 50.5t-50.5 21t-50 -21t-20.5 -50.5t20.5 -50t50 -20.5t50.5 20.5zM515 -28q22 0 35 17q37 49 72.5 100t79.5 121.5t71.5 135t27.5 107.5q0 116 -84 198t-202 82t-202 -82t-84 -198q0 -43 27 -107.5t71 -135t80 -121.5t73 -100
q13 -17 35 -17zM514.5 682q96.5 0 165 -67t68.5 -162q0 -51 -57 -157t-157 -241q-7 -10 -19.5 -10t-19.5 10q-100 135 -157 241t-57 157q0 95 68.5 162t165 67zM868 48q-21 25 -54 38q-24 10 -58 13l-35 -56q3 -1 8 -1h6l31 -1q45 -7 68 -34q10 -12 10 -21q0 -6 -6.5 -14
t-27 -19.5t-51.5 -21.5q-96 -29 -246 -29t-248 30q-31 9 -51.5 20.5t-27.5 19.5t-7 14q0 20 14 30q19 16 63 20h2l1 1h5q3 0 9.5 0.5t14.5 0.5q2 1 6.5 1t7.5 1l-36 55q-68 -5 -101 -30q-35 -28 -35 -79q0 -41 39 -71q30 -23 84 -40q104 -31 260 -31q157 0 259 31
q53 16 83 39q38 30 38 72q0 33 -25 62z" />
    <glyph glyph-name="uniE604" unicode="&#xe604;" horiz-adv-x="1026" 
d="M932 -128h-290q-38 0 -66 38t-28 79v265q0 39 27.5 66.5t66.5 27.5h290q38 0 65.5 -27.5t27.5 -66.5v-289q0 -38 -27.5 -65.5t-65.5 -27.5zM977 251q0 20 -14 34t-34 14h-286q-19 0 -33 -14t-14 -34v-286q0 -20 14 -34t33 -14h286q20 0 34 14t14 34v286zM932 420h-290
q-38 0 -66 38t-28 79v266q0 38 27.5 65.5t66.5 27.5h290q38 0 65.5 -27.5t27.5 -65.5v-289q0 -39 -27.5 -66.5t-65.5 -27.5zM977 799q0 20 -14 34t-34 14h-286q-19 0 -33 -14t-14 -34v-286q0 -19 14 -33t33 -14h286q20 0 34 14t14 33v286zM384 -128h-291q-37 0 -65 38
t-28 79v265q0 39 27.5 66.5t65.5 27.5h291q38 0 65.5 -27.5t27.5 -66.5v-289q0 -38 -27.5 -65.5t-65.5 -27.5zM429 251q0 20 -14 34t-34 14h-286q-19 0 -33 -14t-14 -34v-286q0 -20 14 -34t33 -14h286q20 0 34 14t14 34v286zM384 420h-291q-37 0 -65 38t-28 79v266
q0 38 27.5 65.5t65.5 27.5h291q38 0 65.5 -27.5t27.5 -65.5v-289q0 -39 -27.5 -66.5t-65.5 -27.5zM429 799q0 20 -14 34t-34 14h-286q-19 0 -33 -14t-14 -34v-286q0 -19 14 -33t33 -14h286q20 0 34 13.5t14 33.5v286zM429 799z" />
    <glyph glyph-name="uniE605" unicode="&#xe605;" 
d="M959 585q0 -24 -17 -40l-390 -390q-3 -2 -4 -3l-3 -3q-17 -17 -39 -17q-23 0 -38 16l-389 393q-16 16 -16 40q0 22 16 39q16 16 39 16q22 0 38 -16l350 -354l360 359q16 16 38 16q23 0 39 -17q16 -16 16 -39z" />
    <glyph glyph-name="uniE606" unicode="&#xe606;" 
d="M63 188q0 24 17 40l390 390q2 2 4 3l3 3q17 17 39 17t38 -16l388 -393q17 -16 17 -40q0 -23 -16 -39t-39 -16q-22 0 -38 16l-351 354l-359 -359q-16 -16 -38 -16q-23 0 -39 17q-16 16 -16 39z" />
    <glyph glyph-name="uniE607" unicode="&#xe607;" 
d="M449 61q-105 0 -194 51.5t-140.5 140.5t-51.5 193.5t51.5 193.5t140.5 141t194 52t193.5 -52t140.5 -141t52 -193.5t-52 -193.5t-140.5 -140.5t-193.5 -51.5zM449 738q-120 0 -205.5 -85.5t-85.5 -206t85.5 -205.5t205.5 -85t205.5 85t85.5 205.5t-85.5 206t-205.5 85.5z
M900 -62q-25 0 -42 17l-201 201q-17 17 -17 41.5t17 41.5t41 17t41 -17l202 -202q17 -17 17 -41t-17 -41t-41 -17z" />
    <glyph glyph-name="uniE608" unicode="&#xe608;" 
d="M975 787h-327q0 1 1 3t1 4q0 41 -30.5 71.5t-71.5 30.5h-67q-43 2 -73 -28t-30 -72q0 -5 3 -7h-332q-17 0 -28.5 -11.5t-11.5 -28.5t11.5 -28.5t28.5 -11.5h78v-637q0 -83 59 -141.5t141 -58.5h390q83 0 141.5 59t58.5 141v635h60q17 0 28.5 11.5t11.5 28t-12.5 28.5
t-29.5 12zM459 796q0 8 6.5 15t15.5 7h67q8 0 15 -7t7 -15q0 -5 2 -7h-113v7zM837 70q0 -50 -35 -85t-85 -35h-390q-50 0 -85 35t-35 85v637h630v-637zM412 139q17 0 28.5 11.5t11.5 28.5v312q0 17 -11.5 28.5t-28.5 11.5t-28.5 -11.5t-11.5 -28.5v-312q0 -17 11.5 -28.5
t28.5 -11.5zM632.5 139q16.5 0 28 11.5t11.5 28.5v312q0 17 -11.5 28.5t-28 11.5t-28.5 -11.5t-12 -28.5v-312q0 -17 12 -28.5t28.5 -11.5z" />
    <glyph glyph-name="uniE609" unicode="&#xe609;" 
d="M906.5 468q-11.5 0 -20 -8.5t-8.5 -20.5v-454q0 -23 -16.5 -40.5t-39.5 -17.5h-676q-23 0 -39 17.5t-16 40.5v796q0 23 16 40t39 17h508q11 0 20 9t9 20.5t-9 20t-20 8.5h-508q-46 -2 -79.5 -35.5t-33.5 -79.5v-796q0 -47 33.5 -80t79.5 -33h676q47 0 80 33t33 80v454
q0 12 -8.5 20.5t-20 8.5zM982 885q-8 8 -20 8t-20 -8l-703 -712q-8 -8 -8 -19.5t8 -19.5q6 -9 20 -9t20 9l703 711q8 8 8 20t-8 20z" />
    <glyph glyph-name="uniE60A" unicode="&#xe60a;" 
d="M672 -66q-59 0 -85 43l-41 66q-45 3 -79 -7l-28 -52q-19 -35 -63 -45.5t-87 10.5q-90 42 -105 98q-9 36 13 70l36 66q-15 37 -40 66l-64 -2q-41 0 -72.5 35t-33.5 85q-5 68 21 109.5t75 46.5l74 2q9 10 22.5 32.5t18.5 37.5l-32 52q-23 37 -4.5 83.5t67.5 77t99 26
t73 -42.5l34 -56q15 -3 43.5 -3t43.5 3l31 56q23 34 70.5 39t95.5 -21q47 -25 69 -67q25 -48 3 -89l-32 -59q6 -16 22 -40.5t27 -34.5l57 2l2 -1q41 -2 69 -40.5t30 -93.5q1 -54 -24 -93q-29 -46 -76 -48l-72 -2q-10 -14 -21.5 -39t-14.5 -38l28 -47q22 -37 3.5 -83
t-67.5 -76q-42 -26 -86 -26zM527 110q40 0 55 -8l9 -4l53 -86q4 -7 15.5 -10t29 1t35.5 14q25 16 36 36.5t5 31.5l-36 59l-1 6q-6 28 21 84.5t48 70.5l7 4l96 3q12 0 22 17q14 22 13 55q-1 29 -12.5 48.5t-23.5 21.5l-71 -2l-6 2q-26 10 -61.5 64.5t-34.5 80.5v8l42 78
q6 10 -3 26q-12 24 -41 40q-28 13 -49.5 13t-29.5 -10l-38 -69l-6 -5q-22 -15 -85.5 -15t-85.5 15l-6 4l-44 72q-4 7 -15.5 10t-29.5 -1t-35 -14q-26 -16 -37 -37t-4 -32l44 -71v-9q1 -25 -29.5 -77t-52.5 -63l-7 -4l-91 -2q-39 -4 -34 -83q2 -26 14 -42.5t24 -16.5l85 2
l8 -3q22 -12 52 -61t30 -73v-8l-49 -91q-6 -9 -4 -16q7 -25 67 -54q24 -10 41 -7t23 13l37 68l6 5q27 21 104 21zM509 208q-72 0 -123 51.5t-51 123.5t51 123t123 51t123 -51t51 -123t-51 -123.5t-123 -51.5zM509.5 490q-44.5 0 -76 -31.5t-31.5 -76t31.5 -76t76 -31.5
t76 31.5t31.5 76t-31.5 76t-76 31.5z" />
    <glyph glyph-name="uniE60B" unicode="&#xe60b;" horiz-adv-x="1026" 
d="M1015 364l-122 122l-363 365q-7 7 -17 7t-17 -7l-367 -365l-122 -122q-7 -7 -7 -17t6.5 -16.5t16.5 -6.5t17 7l80 80v-405q0 -41 29 -69.5t69 -28.5h172q10 0 17 7t7 17v245h196v-243v0q0 -10 7 -17t17 -7h172q40 0 69 29t29 69v403l80 -80q7 -7 18 -7t18 7q5 6 4 16.5
t-9 16.5zM853 275v-267q0 -20 -14.5 -34.5t-34.5 -14.5h-147v242v0q0 10 -7.5 17.5t-17.5 7.5h-242q-10 0 -17.5 -7.5t-7.5 -17.5v-242h-145q-20 0 -34.5 14.5t-14.5 34.5v452l341 340l341 -340v-185z" />
    <glyph glyph-name="uniE60C" unicode="&#xe60c;" 
d="M948 453h-369v370q0 28 -20.5 48.5t-49 20.5t-48.5 -20.5t-20 -48.5v-370h-370q-28 0 -48.5 -20.5t-20.5 -48.5t20.5 -48.5t48.5 -20.5h370v-370q0 -28 20 -48.5t48.5 -20.5t49 20.5t20.5 48.5v370h369q29 0 49 20.5t20 48.5q0 29 -19.5 49t-49.5 20z" />
    <glyph glyph-name="uniE60D" unicode="&#xe60d;" 
d="M709 -61q-23 0 -40 16l-390 391q-2 2 -3 4l-2 3q-17 17 -17 39t16 38l392 388q17 16 40 16t39 -16q17 -16 17 -39q0 -22 -16 -38l-354 -350l358 -360q16 -16 16 -38q0 -23 -17 -39q-16 -15 -39 -15z" />
    <glyph glyph-name="uniE60E" unicode="&#xe60e;" 
d="M313 834q23 0 40 -16l389 -391q3 -2 4 -4l2 -3q17 -17 17 -39t-16 -38l-392 -388q-17 -16 -40 -16t-39 16q-17 16 -17 39q0 22 16 38l354 350l-358 359q-16 16 -16 38q0 24 17 40q16 15 39 15z" />
    <glyph glyph-name="uniE60F" unicode="&#xe60f;" 
d="M512 895q-104 0 -198.5 -40.5t-163 -109t-109 -163t-40.5 -198.5t40.5 -198.5t109 -163t163 -109t198.5 -40.5t198.5 40.5t163 109t109 163t40.5 198.5t-40.5 198.5t-109 163t-163 109t-198.5 40.5zM512 -61q-90 0 -172.5 35.5t-142 95t-95 142t-35.5 172.5t35.5 172.5
t95 142t142 95t172.5 35.5t172.5 -35.5t142 -95t95 -142t35.5 -172.5t-35.5 -172.5t-95 -142t-142 -95t-172.5 -35.5zM770 417h-225v299q0 14 -9.5 23.5t-23.5 9.5t-23.5 -9.5t-9.5 -23.5v-325v-6v-1q0 -14 10 -23.5t24 -9.5h257q14 0 23.5 9.5t9.5 23.5t-9.5 23.5
t-23.5 9.5z" />
    <glyph glyph-name="uniE610" unicode="&#xe610;" 
d="M755 599l-243 -242l-243 242q-10 10 -23.5 10t-23.5 -9.5t-10 -23.5t10 -24l243 -243l-243 -243q-10 -9 -10 -23t10 -24t23.5 -10t23.5 10l243 243l243 -243q10 -10 23.5 -10t23.5 10t10 24t-10 23l-243 243l243 243q10 10 10 24t-10 23.5t-23.5 9.5t-23.5 -10z" />
    <glyph glyph-name="uniE611" unicode="&#xe611;" 
d="M512 739q-117 0 -216.5 -58t-157.5 -157.5t-58 -216.5t58 -216.5t157.5 -157.5t216.5 -58t216.5 58t157.5 157.5t58 216.5t-58 216.5t-157.5 157.5t-216.5 58zM721 150l-53 -52l-156 157l-156 -157l-53 52l157 157l-157 156l52 53l157 -157l156 157l53 -53l-157 -156z
" />
    <glyph glyph-name="uniE612" unicode="&#xe612;" 
d="M367 62.5q0 -33.5 -23.5 -57t-57 -23.5t-57 23.5t-23.5 57t23.5 57t57 23.5t57 -23.5t23.5 -57zM853 62.5q0 -33.5 -23.5 -57t-57 -23.5t-57 23.5t-23.5 57t23.5 57t57 23.5t57 -23.5t23.5 -57zM937 358l-78 103q-1 1 -4.5 5.5t-4.5 6t-4 5.5l-5 4l-4 4q-3 3 -5 3.5
t-5.5 2.5t-6 2.5t-6 1t-7.5 0.5h-156q-15 0 -25 -10t-10 -25v-347q0 -14 10 -24t25 -10q6 45 40.5 75.5t81 30.5t81 -30.5t40.5 -75.5h35q14 0 24 10t10 24v174q0 15 -6.5 32.5t-13.5 27.5zM720 288v139h85q3 0 6 -2t5 -4l3 -2l73 -102q13 -19 13 -29h-185zM547 635h-452
q-14 0 -24 -10t-10 -25v-486q0 -14 10 -24t24 -10h70q6 45 40.5 75.5t81 30.5t81 -30.5t40.5 -75.5h139q14 0 24 10t10 24v486q0 15 -10 25t-24 10z" />
    <glyph glyph-name="uniE613" unicode="&#xe613;" horiz-adv-x="1026" 
d="M982 422v-170l36 -35l-75 -78l-75 75l51 47v134q-311 -128 -337 -140q-36 -16 -66 -17t-66 13q-304 115 -391 157q-58 27 -59 46.5t60 43.5q57 21 196 73t182 68q35 14 50.5 19t38.5 4t48 -13q44 -19 196.5 -78t206.5 -81q21 -9 32.5 -17.5t14 -14t-2 -11.5t-10 -9
t-16 -8t-14.5 -8zM592 188q27 11 95 42.5t108 48.5v-268q-5 -4 -12.5 -11t-34.5 -25.5t-57 -33t-77.5 -26t-96.5 -11.5q-54 0 -103.5 11t-82.5 27t-58.5 31.5t-37.5 26.5l-12 11v250q29 -11 209 -73q42 -15 82.5 -16t77.5 16zM592 188z" />
    <glyph glyph-name="uniE614" unicode="&#xe614;" 
d="M-656 274h11h-11zM-498 123h10h-10zM356 17q0 -38 -27.5 -65.5t-65.5 -27.5t-65.5 27.5t-27.5 65.5t27.5 65t65.5 27t65.5 -27t27.5 -65v0zM894 17q0 -38 -27.5 -65.5t-65.5 -27.5t-65.5 27.5t-27.5 65.5t27.5 65t65.5 27t65.5 -27t27.5 -65v0zM991 357l-84 111
q-40 48 -100 48h-146q-16 0 -24.5 -11.5t-8.5 -28.5v-399q0 -18 8.5 -29t24.5 -11q7 52 47 87t93 35t93 -35t47 -87h40q17 0 28.5 11.5t11.5 28.5v199q0 17 -7.5 37t-15.5 32l-7 12v0zM732 276v160h76q3 0 6 -2.5t5 -4.5l1 -2l85 -117q15 -23 15 -34h-179h-9zM416 676h-339
q-74 0 -74 -74v-491q0 -31 20 -52.5t54 -21.5h46q7 52 47 87t93 35t93 -35t47 -87h120q16 0 28 11.5t12 28.5v525q0 33 -18.5 53.5t-55.5 20.5h-73zM489 676z" />
    <glyph glyph-name="uniE615" unicode="&#xe615;" 
d="M580 -210q-26 -2 -57.5 -2t-50.5 1l-19 1q-7 1 -19.5 1.5t-49 7t-69.5 17t-73.5 32.5t-69.5 50.5t-49 75.5t-20 104t18.5 113t48 100t66 84t72 69t65.5 50.5t49 31.5l18 11h155q6 -5 17.5 -13t45 -35.5t63.5 -56.5t67 -72.5t64 -86.5t45 -96.5t18 -103.5
q0 -40 -11.5 -75.5t-31 -61.5t-44.5 -48t-52.5 -36.5t-55.5 -26t-53 -18t-44.5 -10.5t-30.5 -5zM440 555v55h155v-55h-155zM592 628h-149l-80 180q47 -37 76 -37q13 0 32.5 9.5t32.5 18.5l14 10q46 -38 74 -38q13 0 33 10t33 19l13 10zM471 -51h70v68h93v55h-93v30h93v55
h-66l79 156h-77l-51 -105q-8 -19 -13 -35q-4 15 -13 35l-50 105h-77l78 -156h-65v-55h92v-30h-92v-55h92v-68z" />
    <glyph glyph-name="uniE616" unicode="&#xe616;" 
d="M110 560q0 9 6.5 16t16.5 7h758q9 0 15.5 -7t6.5 -16v-540q0 -9 -6.5 -15.5t-15.5 -6.5h-758q-10 0 -16.5 6.5t-6.5 15.5v540zM64 560v-540q0 -28 20 -48t49 -20h758q28 0 48 20t20 48v540q0 28 -20 48.5t-48 20.5h-758q-29 0 -49 -20.5t-20 -48.5zM345 583v116
q0 10 6.5 16.5t15.5 6.5h289q9 0 16 -6.5t7 -16.5v-116h46v116q0 29 -20 49t-49 20h-289q-28 0 -48 -20t-20 -49v-116h46zM176 452h672v-46h-672v46zM176 327h672v-46h-672v46zM176 202h672v-47h-672v47z" />
    <glyph glyph-name="uniE617" unicode="&#xe617;" horiz-adv-x="1266" 
d="M509 896h-149q-106 0 -142 -94l-104 -265q-38 -5 -76 -44t-38 -100v-338h117v-84q0 -38 16.5 -63.5t39.5 -31.5t46.5 0t39.5 32t16 63v84h715v-84q0 -37 16.5 -63t39.5 -32t46.5 0t40 31.5t16.5 63.5v84h117v338q0 61 -38 100t-77 44l-104 265q-36 94 -141 94h-147h-250z
M255 260q-38 0 -64 26.5t-26 64.5t26 65t63.5 27t63.5 -27t26 -65t-26 -64.5t-63 -26.5v0zM222 543l78 205q8 25 21.5 38t37.5 13h548q24 0 37 -13t21 -38l79 -205h-822v0zM1011 260q-37 0 -63.5 26.5t-26.5 64.5t26.5 65t63.5 27t63.5 -27t26.5 -65t-26.5 -64.5
t-63.5 -26.5v0zM1011 260z" />
    <glyph glyph-name="uniE618" unicode="&#xe618;" 
d="M1022 653q-9 37 -39 62t-70 25l-802 -1q-46 0 -78.5 -32.5t-32.5 -77.5v-490q0 -46 32.5 -78.5t78.5 -32.5h802q46 0 78.5 32.5t32.5 78.5v490q0 13 -2 24zM969 139q0 -23 -16.5 -39.5t-39.5 -16.5l-802 1q-23 0 -39.5 16t-16.5 39v367h914v-367zM969 614h-914v15
q0 23 16.5 39t39.5 16l802 1q23 -1 40 -17q16 -16 16 -39v-15zM875 198.5q0 -20.5 -14.5 -35t-35 -14.5t-35 14.5t-14.5 35t14.5 35t35 14.5t35 -14.5t14.5 -35zM673 339h-585v98h585v-98z" />
    <glyph glyph-name="uniE619" unicode="&#xe619;" horiz-adv-x="1025" 
d="M1013 -47l-136 137q96 130 96 290q0 99 -38.5 189t-103.5 155t-155.5 103.5t-189.5 38.5t-189 -38.5t-155 -103.5t-103.5 -155t-38.5 -189t38.5 -189t103.5 -155.5t155 -104t189 -38.5q101 0 190 38.5t156 106.5l132 -132q10 -9 24 -9t25.5 9.5t11.5 23t-12 23.5z
M486.5 -38q-113.5 0 -210 56t-152.5 152t-56 209.5t56 210t152.5 152.5t210 56t209.5 -56t152.5 -152.5t56.5 -210t-56.5 -209.5t-152.5 -152t-209.5 -56zM734 169q0 -18 -6.5 -24t-23.5 -6h-230h-45q-11 0 -32 4q-13 3 -26 13l-25 25q-4 -6 -12.5 -16t-9.5 -11
q-11 -12 -27 -22q-13 -9 -26 -6t-19 15q-10 13 -7 23q5 13 22 22q9 4 15 12q10 11 12.5 17.5t10.5 19.5q4 12 4 19v139q0 10 -2 12h-8h-24q-17 0 -23.5 6.5t-6.5 23.5t6.5 23.5t23.5 6.5h47q17 0 24 -2q9 -3 15 -9q4 -4 8 -17q2 -6 2 -27v-145v-7v-6q10 -16 19 -26
q13 -13 22 -15q10 -5 27 -8q11 -2 37 -2h228q17 0 23 -7q7 -13 7 -25zM363 499q-9 -8 -22 -8q-10 2 -25 15q-15 15 -22 19q-3 3 -11 10t-12 11q-27 24 -4 47q10 11 21 11q10 0 26 -13q4 -5 12 -11.5t11 -9.5l1 -1l1 -1l1 -1l1 -1l1 -1l1 -1v-1l1 -1l1 -1l1 -1l1 -1l1 -1
l2 -1l1 -1l1 -1l1 -1l1 -1l1 -1l1 -1l1 -1l1 -1l1 -1l2 -2q12 -13 12 -25q4 -11 -10 -22zM514 335h-94q-18 0 -21 6q-6 7 -6 22q0 14 6 17q4 4 21 4h94v38h-75q-14 0 -20.5 6.5t-6.5 19.5q0 11 6.5 17t20.5 6h75v39h-87q-15 0 -21.5 6.5t-6.5 18.5q0 11 6 18q6 8 22 8h87v24
q0 14 7 21q5 8 21 8q18 0 23 -8q7 -10 7 -21v-24h113q15 0 21 -8q7 -7 7 -18q0 -12 -6.5 -18.5t-21.5 -6.5h-113v-39h100q28 0 28 -21q0 -12 -7 -21q-8 -9 -21 -9h-100v-38h85q21 0 30 -2q13 -5 17 -9q5 -5 9 -19q2 -9 2 -36q0 -17 -5 -39q-3 -16 -10 -23q-6 -8 -19 -13
q-18 -4 -32 -4h-18q-4 0 -21 4q-20 3 -23 11q-6 6 -2 21l4 13q3 6 6 6q2 2 11 2q2 0 7.5 -1t9.5 -1q8 -2 17 -2q4 0 8.5 4.5t4.5 8.5v13q0 10 -2 12.5t-11 2.5h-70v-96q0 -16 -9 -22q-10 -6 -21.5 -6t-21.5 6q-8 6 -8 22v100h4z" />
    <glyph glyph-name="uniE61A" unicode="&#xe61a;" 
d="M531 457h113v-56h-113v56zM531 345h113v-75h-113v75zM531 214h113v-75h-113v75zM995 527l-414 340q-29 23 -69 23t-69 -23l-414 -340q-29 -24 -29 -57t29 -57h99v-420q0 -48 33.5 -81.5t81.5 -33.5h538q47 0 81 33.5t34 81.5v420h99q29 24 29 57t-29 57zM736 83h-310v56
h42v108l-4 4l-35 -42q-16 23 -36 51v-196h-60v198q-19 -54 -46 -104q-8 36 -22 75q31 46 56 112h-54v56h66v60q-23 -2 -57 -4q-3 30 -9 56q80 4 171 19l14 -57q-28 -6 -60 -12v-62h62v-56h-62v-49l17 16q23 -24 55 -61l4 5v257h239v-374h29v-56zM736 83z" />
    <glyph glyph-name="uniE61B" unicode="&#xe61b;" 
d="M563 107q129 224 154 287q9 22 15 41.5t9.5 32t5 25.5t1.5 18.5t-0.5 16t-0.5 12.5q0 100 -74 172.5t-170.5 72.5t-170.5 -72.5t-74 -172.5q0 -2 -0.5 -12.5t-0.5 -16t2 -18.5t5 -25.5t9 -32t15 -41.5q25 -63 154 -287q-82 -6 -148 -23.5t-104 -44t-38 -57.5
q0 -26 28.5 -54t74.5 -51t112 -38t136 -15t136 15t112.5 38t74.5 51t28 54q0 47 -83 82t-208 43zM398 536.5q0 44.5 31 75.5t74.5 31t74 -31t30.5 -75.5t-30.5 -76t-74.5 -31.5t-74.5 31.5t-30.5 76zM503 -81q-109 0 -186 27.5t-77 67.5q0 33 57 58.5t145 33.5
q34 -60 61 -104q26 44 60 104q88 -7 145.5 -33t57.5 -59q0 -40 -77 -67.5t-186 -27.5z" />
    <glyph glyph-name="uniE61C" unicode="&#xe61c;" 
d="M711.5 186.5q-6.5 -8.5 -5 -19.5t9.5 -17q63 -49 97.5 -120.5t34.5 -152.5q0 -11 8 -18.5t18.5 -7.5t18 7.5t7.5 18.5q0 94 -39.5 176t-112.5 139q-8 6 -19 4.5t-17.5 -10zM150 -149q11 0 18.5 7.5t7.5 18.5q0 93 45 172t122.5 125t168.5 46q107 0 183 77t76 186
t-76 186.5t-183 77.5t-183 -77.5t-76 -186.5q0 -72 37 -134.5t99 -96.5q-118 -40 -191.5 -144t-73.5 -231q0 -11 7.5 -18.5t18.5 -7.5zM512.5 694q85.5 0 146 -62t60.5 -149t-60.5 -148.5t-146 -61.5t-146 61.5t-60.5 148.5t60.5 149t146 62z" />
    <glyph glyph-name="uniE61D" unicode="&#xe61d;" 
d="M711.5 186.5q-6.5 -8.5 -5 -19.5t9.5 -17q63 -49 97.5 -120.5t34.5 -152.5q0 -11 8 -18.5t18.5 -7.5t18 7.5t7.5 18.5q0 94 -39.5 176t-112.5 139q-8 6 -19 4.5t-17.5 -10zM150 -149q11 0 18.5 7.5t7.5 18.5q0 93 45 172t122.5 125t168.5 46q107 0 183 77t76 186
t-76 186.5t-183 77.5t-183 -77.5t-76 -186.5q0 -72 37 -134.5t99 -96.5q-118 -40 -191.5 -144t-73.5 -231q0 -11 7.5 -18.5t18.5 -7.5zM512.5 694q85.5 0 146 -62t60.5 -149t-60.5 -148.5t-146 -61.5t-146 61.5t-60.5 148.5t60.5 149t146 62z" />
    <glyph glyph-name="uniE61E" unicode="&#xe61e;" 
d="M514 107q149 0 255 -30t106 -72.5t-106 -72.5t-255.5 -30t-255 30t-105.5 72.5t105.5 72.5t255.5 30q-122 0 -226 -17t-164 -46.5t-60 -64t60 -64t164 -46.5t226 -17t225.5 17t164 46.5t60.5 64t-60.5 64t-164 46.5t-225.5 17zM741 519q0 94 -69.5 161.5t-159.5 67.5
t-159.5 -67.5t-69.5 -161.5q0 -2 -0.5 -12t0 -15t2 -17.5t4.5 -24t8.5 -29.5t14.5 -39q8 -21 58 -112.5t96 -172.5l46 -81q181 317 200 366q8 21 14 39t9 29.5t4.5 24t1.5 17.5v15v12zM512.5 415q-40.5 0 -69.5 29.5t-29 71t29 70.5t69.5 29t69.5 -29t29 -70.5t-29 -71
t-69.5 -29.5z" />
    <glyph glyph-name="uniE61F" unicode="&#xe61f;" 
d="M1024 -212h-43q-13 110 -81.5 203.5t-172 147.5t-215.5 54t-215.5 -54t-172 -147.5t-81.5 -203.5h-43q17 154 116 272.5t243 161.5q-76 41 -121.5 111.5t-45.5 158.5q0 129 96 224.5t224 95.5t224 -95.5t96 -224.5q0 -88 -45.5 -158.5t-121.5 -111.5q144 -43 243 -161.5
t116 -272.5zM789 492q0 69 -40 133.5t-104.5 104t-132.5 39.5t-132.5 -39.5t-104.5 -104t-40 -133.5t40 -128.5t104 -93.5t133 -34t133 34t104 93.5t40 128.5z" />
    <glyph glyph-name="uniE620" unicode="&#xe620;" 
d="M831 698h-638q-28 0 -48 -20t-20 -48v-523q0 -29 20 -49t48 -20h137v-113q0 -10 8.5 -18t18.5 -8q12 -2 24 10l129 129h321q28 0 48 20t20 49v523q0 28 -20 48t-48 20zM853 129q0 -19 -13 -32t-32 -13h-312h-4q-1 -1 -8 -7l-109 -109v93q0 9 -6.5 16t-15.5 7h-137
q-19 0 -32 13t-13 32v478q0 19 13 32.5t32 13.5h592q19 0 32 -13.5t13 -32.5v-478zM694 380zM649 379.5q0 18.5 13 32t32 13.5t32.5 -13.5t13.5 -32t-13.5 -32t-32.5 -13.5t-32 13.5t-13 32zM512 380zM466 379.5q0 18.5 13.5 32t32.5 13.5t32.5 -13.5t13.5 -32t-13.5 -32
t-32.5 -13.5t-32.5 13.5t-13.5 32zM330 380zM284 379.5q0 18.5 13.5 32t32.5 13.5t32 -13.5t13 -32t-13 -32t-32 -13.5t-32.5 13.5t-13.5 32z" />
    <glyph glyph-name="uniE621" unicode="&#xe621;" 
d="M511 798q-136 0 -251 -57.5t-181.5 -156t-66.5 -214.5q0 -97 50 -184.5t142 -149.5q13 -9 27.5 -6t22.5 15t5.5 26.5t-15.5 23.5q-77 52 -119 124t-42 151q0 97 57.5 179t156 130t214.5 48t214.5 -48t156 -130t57.5 -178.5t-57.5 -178.5t-156 -130t-214.5 -48h-3l-3 -1
q-13 2 -24.5 -4t-15.5 -19q-10 -28 -105 -82q19 65 4 88q-12 18 -34 18q-14 0 -24.5 -10.5t-10.5 -25.5q0 -9 5 -18q-7 -36 -37 -111q-9 -22 8 -39q10 -10 25 -10q7 0 14 3q32 14 64.5 31t78.5 49t66 60q134 2 247 59.5t178.5 155.5t65.5 212q0 116 -67 214.5t-182 156
t-250 57.5zM320 438q-27 0 -46 -19t-19 -45.5t19 -45.5t45.5 -19t45.5 19t19 45.5t-19 45.5t-45 19zM512 438q-27 0 -45.5 -19t-18.5 -45.5t18.5 -45.5t45 -19t45.5 19t19 45.5t-19 45.5t-45 19zM704 438q-26 0 -45 -19t-19 -45.5t19 -45.5t45.5 -19t45 19t18.5 45.5
t-18.5 45.5t-45.5 19z" />
    <glyph glyph-name="uniE622" unicode="&#xe622;" 
d="M511 525l49 -117l24 -55l59 -6l128 -12l-89 -79l-43 -39l12 -57q11 -50 24 -112l-112 65l-50 29l-50 -29q-67 -39 -110 -63l26 107l15 60l-47 40q-65 56 -91 78l121 11l59 5l24 54zM513 717q-17 0 -27 -11q-10 -10 -15 -24l-103 -237l-276 -25q-10 -2 -18 -9t-9.5 -19.5
t5.5 -24.5q8 -11 19 -21l10 -9l22 -19q22 -19 32 -27l35 -29q31 -27 95 -81l-31 -124q-6 -22 -12 -47q-7 -27 -10 -42q-5 -20 -8 -33l-5 -17q-2 -8 2 -15.5t11 -12.5t17 -7h4q7 0 15 3q4 2 17 9q10 6 31 18q10 6 40 23q27 15 44 25q46 26 115 66l233 -135l13 -5q8 -3 13 -3
q13 0 24 6t8 24q-1 2 -3 17l-7 33q-5 22 -9 43q-3 21 -9 48q-15 72 -27 127l185 164q12 15 19 23q7 9 7 22t-7 19t-25 11l-276 26l-100 237q-2 3 -5 9t-7 10q-5 6 -11.5 10t-15.5 4z" />
    <glyph glyph-name="uniE623" unicode="&#xe623;" 
d="M959 401h-341l-106 327l-106 -327h-341l276 -202l-105 -327l276 202l276 -202l-105 327zM732 -50l-220 161l-220 -161l84 260l-220 161h272l84 260l84 -260h272l-220 -161z" />
    <glyph glyph-name="uniE624" unicode="&#xe624;" 
d="M522 298h130v-165l320 274l-320 277v-159q-69 -1 -128 -17.5t-99 -41t-72.5 -59t-51.5 -67.5t-32.5 -70.5t-19.5 -63t-9 -50.5h1q6 29 25 52.5t42.5 37.5t55 25t56.5 15.5t51.5 7.5t36 3.5t14.5 0.5zM791 -13h-665q-19 0 -32.5 13.5t-13.5 32.5v556q0 20 13.5 33.5
t32.5 13.5h428v-31h-428q-6 0 -10.5 -4.5t-4.5 -11.5v-556q0 -6 4.5 -10.5t10.5 -4.5h665q6 0 10.5 4.5t4.5 10.5v113h31v-113q0 -19 -13.5 -32.5t-32.5 -13.5z" />
    <glyph glyph-name="uniE625" unicode="&#xe625;" 
d="M756 2h-607v438h140q4 5 11.5 14t34.5 34t58 45h-291q-19 0 -32.5 -14t-13.5 -33v-530q0 -19 13.5 -32.5t32.5 -13.5h701q19 0 33 13.5t14 32.5v265l-94 -76v-143zM679 377v-156l311 233l-311 234v-145q-239 0 -339 -206q-46 -96 -51 -194q42 69 77.5 110.5t80.5 71
t99.5 41t132.5 11.5zM679 377z" />
    <glyph glyph-name="uniE626" unicode="&#xe626;" 
d="M668 486l-134 187q-8 10 -21 11h-1h-1q-13 -1 -21 -11l-135 -187q-6 -10 -4.5 -21t10.5 -17.5t20 -5t18 10.5l113 158l113 -157q6 -9 17 -11t20 5t10.5 18t-4.5 20zM748 -42h1q10 8 10 22v230q-1 11 -9 19.5t-19 8.5t-19 -8t-7 -19v-194l-183 60q-11 4 -20.5 -1
t-13 -15.5t1.5 -21t16 -13.5l218 -72q13 -4 24 3v1zM895 406h-1v1v1q-5 12 -17 16l-220 70q-11 4 -21 -1.5t-13.5 -16t1.5 -20.5t16 -13l184 -59l-114 -156q-6 -9 -4.5 -20t10.5 -17t20.5 -4.5t18.5 10.5l135 186q8 10 5 23zM535 60.5q-3 10.5 -13 15.5t-21 1l-183 -60
l1 194q0 11 -7.5 19t-19 8t-19.5 -8.5t-8 -19.5l-1 -230q0 -14 10 -22q1 0 1 -0.5t1 -0.5q11 -7 23 -3l218 72q11 3 16 13.5t2 21zM401 476.5q-4 10.5 -14 16t-21 1.5l-219 -70q-13 -4 -17 -16l-1 -1v-1v0q-4 -13 4 -23l136 -186q7 -9 18 -10.5t20 4.5t11 17t-5 20l-114 156
l185 59q10 3 15.5 13t1.5 20.5z" />
    <glyph glyph-name="uniE627" unicode="&#xe627;" 
d="M512 337q53 0 90 37.5t37 90t-37 90t-90 37.5t-90 -37.5t-37 -90t37 -90t90 -37.5zM512 541q32 0 54 -22.5t22 -54t-22 -54t-54 -22.5t-54 22.5t-22 54t22 54t54 22.5zM378 103q3 -4 6 -7q48 -61 95 -100l33 -27l33 27q46 39 95 101q3 3 6 7q145 198 168 336q4 26 4 43
q1 132 -92 225q-89 89 -214 89t-214 -89q-93 -94 -92 -226q0 -17 4 -42q23 -140 168 -337zM512 746q106 0 180.5 -77t74.5 -186q0 -13 -3 -35q-21 -127 -160 -316l-2 -2q-20 -25 -42.5 -48.5t-35.5 -35.5l-12 -11q-45 38 -90 94q-1 2 -2 3q-139 187 -160 315l-3 35
q0 109 74.5 186.5t180.5 77.5zM1006 540l-36 -11l-102 -29q-2 -38 -5 -59l107 35v-557l-305 -89l-357 103l-254 -86v556l105 26q-4 22 -4 48v2l-152 -38v-662l51 17l255 86l356 -103l356 103v636v26zM1006 540z" />
    <glyph glyph-name="uniE628" unicode="&#xe628;" 
d="M511.5 757q-92.5 0 -170.5 -45.5t-123.5 -123.5t-45.5 -170q0 -50 45 -148t103 -189t114.5 -160t76.5 -69q21 0 77 69t114 160.5t103.5 189t45.5 147.5q0 92 -45.5 170t-123.5 123.5t-170.5 45.5zM511 -63q-17 0 -63.5 59t-95 136.5t-86.5 160.5t-38 125q0 117 83 199.5
t200 82.5t200 -82.5t83 -199.5q0 -42 -37.5 -124.5t-86 -160.5t-95.5 -137t-64 -59zM511.5 559q-58.5 0 -100 -41.5t-41.5 -100t41.5 -100t100 -41.5t100 41.5t41.5 100t-41.5 100t-100 41.5zM511 333q-35 0 -60 24.5t-25 60t25 60t60 24.5t60 -24.5t25 -60t-25 -60
t-60 -24.5z" />
    <glyph glyph-name="uniE629" unicode="&#xe629;" 
d="M192 -78q-9 0 -16 6q-13 11 -8 27l45 147q-49 43 -77 96q-33 64 -33 134q0 69 33 134q31 62 88 110t130 74q76 28 158 28t158 -28q73 -26 130 -74t88 -110q33 -65 33 -134.5t-33 -132.5q-31 -60 -89 -107q-119 -96 -287 -96q-73 0 -141 20l-167 -91q-5 -3 -12 -3z
M512 627q-73 0 -141 -25q-64 -23 -114 -65q-49 -42 -76 -95t-27 -110q0 -117 104 -201q14 -11 9 -27l-32 -104l121 66q10 6 20 2q65 -21 136 -21q97 0 179.5 38t130.5 104t48 143q0 57 -27 110t-76 95q-50 42 -114 65q-68 25 -141 25zM705 392h-386q-11 0 -18.5 7.5t-7.5 18
t7.5 18t18.5 7.5h386q11 0 18.5 -7.5t7.5 -18t-7.5 -18t-18.5 -7.5zM647 209h-270q-10 0 -17.5 7.5t-7.5 18t7.5 18t17.5 7.5h270q10 0 17.5 -7.5t7.5 -18t-7.5 -18t-17.5 -7.5z" />
    <glyph glyph-name="uniE62A" unicode="&#xe62a;" 
d="M930 6h-837q-13 0 -22.5 9.5t-9.5 21.5v523q0 13 9.5 22t22.5 9h837q12 0 21.5 -9t9.5 -22v-523q0 -12 -9.5 -21.5t-21.5 -9.5zM90 34h842v530h-842v-530zM920 9h-818q-10 0 -17 6l-17 11l292 287l151 -148l151 148l293 -287l-18 -11q-7 -6 -17 -6zM360 274l-240 -235
l781 1l-239 234l-128 -128q-9 -10 -22.5 -10t-22.5 10zM511 136q-13 0 -22 10l-424 424l16 12q8 6 18 6h824q10 0 18 -6l17 -12l-424 -424q-10 -10 -23 -10zM117 559l394 -393l395 394z" />
    <glyph glyph-name="uniE62B" unicode="&#xe62b;" 
d="M716 -62q-68 0 -179 69q-105 65 -206 163l-21 21q-98 100 -163 206q-68 111 -68 179q0 66 61 147q11 16 24.5 31t38.5 33t44 18q25 0 61 -37q27 -28 57 -71q28 -41 48 -78q23 -43 23 -64q0 -27 -29 -47q-12 -9 -42 -21q-25 -11 -31 -16q5 -21 36 -66q36 -53 79 -97
q43 -42 96 -79q45 -30 66 -35q5 6 16 31q13 30 21 42q20 28 47 28q22 0 65 -22q37 -20 78 -48q43 -31 70 -57q37 -36 37 -61q0 -20 -17.5 -44.5t-33 -38t-30.5 -24.5q-82 -62 -148 -62zM367 206q96 -94 197 -155q99 -61 152 -61q48 0 115 49q28 21 46 42q14 16 17 25
q-4 9 -27 30.5t-63 49.5q-37 25 -69 42q-28 14 -39 16q-3 -2 -8 -10t-14 -29q-11 -26 -18 -37q-17 -26 -42 -26h-1q-31 1 -96 45q-58 39 -104 85h-1q-46 47 -85 104q-44 65 -44 97q-1 25 25 42q11 7 37 19q21 9 29 13.5t10 8.5q-1 11 -16 39q-17 32 -42 68
q-28 41 -49.5 63.5t-30.5 27.5q-9 -3 -25 -17q-21 -18 -42 -47q-49 -66 -49 -114q0 -54 61 -152q62 -101 156 -197z" />
    <glyph glyph-name="uniE62C" unicode="&#xe62c;" 
d="M703 2q-24 0 -51 3q-48 6 -87 17l-5 1l-4 3q-116 75 -205 158q-72 66 -124 134q-45 59 -69 111l-5 -1l-6 29q-23 108 -13 174q6 39 21 56v1l58 54l3 1q50 32 105 19q28 -6 46 -20l5 -3l88 -141q35 -43 18 -89q-8 -22 -24 -37l-2 -1l-50 -32q-1 -1 -2 -1q2 -3 3 -3l2 -2
l137 -139q9 -8 17 -5q5 1 9 5l33 33q32 39 85 24q22 -7 40 -20l137 -102q41 -29 26 -85q-6 -23 -18 -41l-1 -1l-59 -74l-5 -3q-39 -23 -103 -23zM586 80q25 -7 55 -11.5t68.5 -4t61.5 11.5l49 62q7 11 10 23q4 14 -2 18l-1 1l-138 102q-10 7 -21 10q-13 4 -19 -4l-1 -2
l-38 -37q-14 -13 -33 -19q-43 -13 -77 20l-1 1l-135 136q-27 22 -27 52t30 50l1 1l46 29q5 6 7 13q4 13 -9 28l-1 1l-84 134q-10 5 -22 8q-28 5 -55 -10l-49 -47q-4 -7 -6.5 -20t-1 -56t13.5 -98q18 -49 69 -116q110 -146 310 -276z" />
    <glyph glyph-name="uniE62D" unicode="&#xe62d;" 
d="M900 691h-776q-34 0 -58.5 -22.5t-24.5 -54.5v-460q0 -32 24.5 -54.5t58.5 -22.5h776q34 0 58.5 22.5t24.5 54.5v460q0 32 -24.5 54.5t-58.5 22.5zM96 154v450l245 -226l-245 -226v2zM136 640h752l-376 -347zM380 342l132 -122l132 123l233 -215h-729zM684 378h-1
l245 226v-450z" />
    <glyph glyph-name="uniE62E" unicode="&#xe62e;" 
d="M855 622h-702q-31 0 -53 -20.5t-22 -49.5v-416q0 -29 22 -49.5t53 -20.5h702q31 0 53 20.5t22 49.5v416q0 29 -22 49.5t-53 20.5v0zM128 136v407l222 -204l-222 -204v1v0zM165 575h679l-328 -302q-12 -11 -24 0l-327 302v0zM385 306l88 -80q13 -12 31 -12t31 12l89 81
l211 -195h-660l210 194v0zM660 339h-1l221 204v-407l-220 203v0zM660 339z" />
    <glyph glyph-name="uniE62F" unicode="&#xe62f;" 
d="M765 660h-508q-34 0 -58 -24t-24 -58v-303q0 -34 24 -58t58 -24h246l122 -121q6 -6 14.5 -6t14.5 6t6 14.5t-6 14.5l-128 127h-1q0 1 -1 1v1h-1h-1l-1 1l-1 1h-1h-1v1h-2q-1 0 -2 1h-1h-1h-1h-254q-17 0 -29 12t-12 29v303q0 17 12 29t29 12h508q17 0 29 -12t12 -29v-303
q0 -17 -12 -29t-29 -12h-105q-9 0 -15 -6t-6 -14.5t6 -14.5t15 -6h105q34 0 58 24t24 58v303q0 34 -24 58t-58 24zM352 425zM321 425.5q0 12.5 9 21.5t21.5 9t21.5 -9t9 -21.5t-9 -21.5t-21.5 -9t-21.5 9t-9 21.5zM511 425zM481 425.5q0 12.5 9 21.5t21.5 9t21.5 -9t9 -21.5
t-9 -21.5t-21.5 -9t-21.5 9t-9 21.5zM669 425zM638 425.5q0 12.5 9 21.5t22 9t22 -9t9 -21.5t-9 -21.5t-22 -9t-22 9t-9 21.5z" />
    <glyph glyph-name="uniE630" unicode="&#xe630;" 
d="M608 79q-1 -9 -7 -15q60 -4 106 -14t69 -22t23 -23q0 -13 -32 -27t-97.5 -24t-146 -10t-145.5 10t-97.5 24t-32.5 27q0 11 24.5 23.5t73.5 22.5t111 14q-2 6 -3 15q-94 -6 -157.5 -25.5t-63.5 -49.5q0 -35 88 -56t202.5 -21t202.5 21t88 56q0 29 -58.5 48t-147.5 26z
M806 617q-3 9 -12 13t-18 0t-13 -13t-1 -18q22 -55 22 -105q0 -66 -76 -197q-27 -45 -62 -96q-44 -64 -97 -132q-13 -17 -25 -33q-13 16 -26 33q-53 67 -97 132q-35 51 -61 96q-77 131 -77 197q0 108 76.5 184.5t184.5 76.5q73 0 139 -41q8 -6 17.5 -3.5t15 10.5t3 18
t-10.5 15q-77 48 -164 48q-128 0 -218.5 -90.5t-90.5 -217.5q0 -79 84 -221q27 -46 63 -99q44 -65 98 -134q18 -23 33 -41q6 -8 12 -15q8 -9 19 -9t18 8.5t12 15.5q16 18 33 41q54 69 98 134q36 53 63 99q84 142 84 221q0 59 -26 123zM381 485q0 -56 40 -95.5t96 -39.5
t95.5 39.5t39.5 95.5t-39.5 95.5t-95.5 39.5t-96 -39.5t-40 -95.5zM604 484.5q0 -36.5 -25.5 -62t-62 -25.5t-62 25.5t-25.5 62t25.5 62.5t62 26t62 -26t25.5 -62.5z" />
    <glyph glyph-name="uniE631" unicode="&#xe631;" 
d="M481 538l-55 -119l-130 -16l95 -90l-24 -129l114 63l115 -63l-24 129l95 90l-130 16zM481 538z" />
    <glyph glyph-name="uniE632" unicode="&#xe632;" 
d="M501 657l88 -177l196 -29l-142 -138l34 -195l-176 92l-175 -92l33 195l-141 138l196 29z" />
    <glyph glyph-name="uniE633" unicode="&#xe633;" 
d="M496 576l79 -160l177 -25l-128 -125l30 -175l-158 83l-157 -83l30 175l-128 125l177 25z" />
    <glyph glyph-name="uniE634" unicode="&#xe634;" 
d="M668 72l-172 90l-171 -90l33 191l-139 135l192 28l85 173l86 -173l192 -28l-139 -135zM263 384l117 -114l-28 -161l144 76l145 -76l-28 161l117 114l-161 23l-73 146l-72 -146z" />
    <glyph glyph-name="uniE635" unicode="&#xe635;" 
d="M512 -97q-91 -1 -118 3l-198 -118v239q-91 64 -143.5 153.5t-52.5 192.5q0 122 68.5 223t186 158.5t257.5 57.5t257.5 -57.5t186 -158.5t68.5 -223q0 -91 -40.5 -177t-109 -150t-163.5 -103t-199 -40zM512 735q-119 0 -219 -49t-158 -134.5t-58 -189.5q0 -83 55.5 -160
t140.5 -136v-139l100 57q18 -3 68.5 -4t75.5 -1q79 3 156 34.5t137 82t98 121t39 145.5q3 103 -56 189.5t-159.5 135t-219.5 48.5zM713 381h-397q-16 0 -27 11.5t-11 27.5t11 27t27 11h397q16 0 27 -11t11 -27t-11 -27.5t-27 -11.5zM395 262h239q16 0 27 -11.5t11 -27
t-11 -27t-27 -11.5h-239q-16 0 -27.5 11.5t-11.5 27t11.5 27t27.5 11.5z" />
    <glyph glyph-name="uniE636" unicode="&#xe636;" 
d="M640 382q0 16 -11 27l-183 183q-10 11 -25.5 11t-26 -11t-10.5 -26t11 -26l158 -158l-158 -159q-11 -10 -11 -25.5t11 -26t26 -10.5t25 11l183 183q11 11 11 27z" />
  </font>
</defs>
</svg>
